<?xml version="1.0" standalone="no"?><!DOCTYPE svg PUBLIC "-//W3C//DTD SVG 1.1//EN" "http://www.w3.org/Graphics/SVG/1.1/DTD/svg11.dtd"><svg t="1572831932184" class="icon" viewBox="0 0 1295 1024" version="1.1" xmlns="http://www.w3.org/2000/svg" p-id="10617" xmlns:xlink="http://www.w3.org/1999/xlink" width="252.9296875" height="200"><defs><style type="text/css"></style></defs><path d="M582.395486 435.905309a289.473874 288.935818 0 1 0 578.947747 0 289.473874 288.935818 0 1 0-578.947747 0Z" fill="#FAD700" p-id="10618"></path><path d="M677.631314 222.83532a289.473874 289.473874 0 1 1 324.447483 472.412753 289.473874 289.473874 0 0 0-324.447483-472.412753z" fill="#FFBE34" p-id="10619"></path><path d="M714.757146 194.318377a289.473874 289.473874 0 1 1 279.788874 504.696085 289.473874 289.473874 0 0 0-279.788874-504.696085z" fill="#FF9019" p-id="10620"></path><path d="M757.263532 399.855588m-21.522221 0a21.522221 21.522221 0 1 0 43.044442 0 21.522221 21.522221 0 1 0-43.044442 0Z" fill="" p-id="10621"></path><path d="M934.821856 399.855588m-21.522221 0a21.522221 21.522221 0 1 0 43.044442 0 21.522221 21.522221 0 1 0-43.044442 0Z" fill="" p-id="10622"></path><path d="M797.617697 485.944473h110.301383a55.419719 55.419719 0 0 1-110.301383 0z" fill="#FF8472" p-id="10623"></path><path d="M852.499361 549.435025a65.642774 65.642774 0 0 1-66.18083-62.952497 10.761111 10.761111 0 0 1 10.76111-11.299166h110.301383a10.761111 10.761111 0 0 1 10.761111 11.299166 65.642774 65.642774 0 0 1-65.642774 62.952497z m-42.506387-52.729442a44.658609 44.658609 0 0 0 85.012773 0z" fill="" p-id="10624"></path><path d="M967.105188 489.710861a24.750554 24.750554 0 1 0 49.501108 0 24.750554 24.750554 0 1 0-49.501108 0Z" fill="#FF9218" p-id="10625"></path><path d="M830.439084 759.276681a310.996095 310.996095 0 0 1-310.996095-310.45804 307.767762 307.767762 0 0 1 28.516943-130.209437 21.662116 21.662116 0 1 1 39.278054 18.293888 265.261375 265.261375 0 0 0-24.750555 111.915549 267.951653 267.951653 0 0 0 461.113587 185.091102 21.522221 21.522221 0 1 1 31.207221 29.593054 308.305817 308.305817 0 0 1-224.369155 95.773884z m243.739154-133.437771a21.522221 21.522221 0 0 1-18.293888-33.359443 266.337486 266.337486 0 0 0 29.054998-60.800274 21.522221 21.522221 0 1 1 40.89222 13.451388 309.919984 309.919984 0 0 1-33.359442 70.485274 21.522221 21.522221 0 0 1-18.293888 10.223055z m45.73472-156.036103a21.522221 21.522221 0 0 1-21.522221-21.522221 267.951653 267.951653 0 0 0-267.951653-267.413597l-25.826665 1.076111a21.629832 21.629832 0 0 1-4.304445-43.044442l30.13111-1.614167A310.996095 310.996095 0 0 1 1141.435179 447.74253a21.522221 21.522221 0 0 1-21.522221 22.598332z m-510.07664-186.705268a21.522221 21.522221 0 0 1-16.141666-35.511665 312.610261 312.610261 0 0 1 56.49583-51.65333 21.576027 21.576027 0 1 1 25.28861 34.973609 269.565819 269.565819 0 0 0-48.424997 44.658609 21.522221 21.522221 0 0 1-17.217777 7.532777zM713.681035 205.617543a21.522221 21.522221 0 0 1-8.608889-41.430276l26.364721-10.223055a21.60831 21.60831 0 0 1 13.989444 40.892221l-23.136388 8.608888a21.522221 21.522221 0 0 1-8.608888 2.152222z" fill="" p-id="10626"></path><path d="M648.576316 489.710861a24.750554 24.750554 0 1 0 49.501108 0 24.750554 24.750554 0 1 0-49.501108 0Z" fill="#FF9218" p-id="10627"></path><path d="M890.701303 881.953341a16.141666 16.141666 0 0 1-16.141666-13.451388l-7.532777-43.582498a16.141666 16.141666 0 1 1 31.745276-5.380555l7.532777 43.582497a16.141666 16.141666 0 0 1-12.913332 18.831944z m-286.783596-71.561385a16.141666 16.141666 0 0 1-13.989444-24.212499l22.060277-38.201942a16.152427 16.152427 0 0 1 27.978887 16.141665l-22.060276 38.201943a16.141666 16.141666 0 0 1-13.989444 8.070833z m552.044971-57.571942a16.141666 16.141666 0 0 1-10.223055-3.766388l-33.897498-28.516943a16.222374 16.222374 0 1 1 20.984165-24.750555l33.897498 28.516943a16.141666 16.141666 0 0 1-10.223055 28.516943zM430.663827 571.495302a16.141666 16.141666 0 0 1-5.380555-31.207221l41.430276-15.065555a16.141666 16.141666 0 0 1 11.299166 30.13111l-41.968331 15.065555z m802.240791-88.779162a16.141666 16.141666 0 0 1 0-32.283332h44.120554a16.141666 16.141666 0 0 1 0 32.283332h-44.120554zM493.078268 291.706427l-5.380555-1.076111-41.968331-15.065554a16.141666 16.141666 0 1 1 10.761111-30.13111l41.430275 15.065555a16.141666 16.141666 0 0 1-5.380555 31.20722z m668.803021-64.566663a16.141666 16.141666 0 0 1-10.223055-28.516943l33.897498-28.516943a16.222374 16.222374 0 0 1 20.984166 24.750555l-33.897499 28.516942a16.141666 16.141666 0 0 1-10.76111 3.766389z m-483.173864-124.828882a16.141666 16.141666 0 0 1-13.989443-8.070833l-22.060277-38.201942a16.152427 16.152427 0 0 1 27.978887-16.141666l22.060277 38.201942a16.141666 16.141666 0 0 1-13.989444 24.212499z m264.185264-25.28861h-2.690277a16.141666 16.141666 0 0 1-12.913333-18.831943l7.532777-43.582498a16.141666 16.141666 0 1 1 31.745276 5.380555l-7.532777 43.582498a16.141666 16.141666 0 0 1-16.141666 13.451388z" fill="" p-id="10628"></path><path d="M290.76939 1012.700834a222.216933 222.216933 0 0 1-89.855273-424.525811 222.216933 222.216933 0 0 1 120.524438-166.259158 218.450544 218.450544 0 0 1 96.849995-22.598332 220.602766 220.602766 0 0 1 215.222211 173.25388 217.912489 217.912489 0 0 1 74.251663 28.516943 222.216933 222.216933 0 0 1 106.534994 189.933601q0 11.299166-1.076111 22.060276h2.690278a100.078328 100.078328 0 0 1 0 200.156656H290.76939z" fill="#D2F7FF" p-id="10629"></path><path d="M815.373529 1005.168057a101.692495 101.692495 0 0 0-75.865829-168.949436h-2.690278q1.076111-11.299166 1.076111-22.598332a225.983321 225.983321 0 0 0-108.149161-193.161934 222.754988 222.754988 0 0 0-75.327773-29.054999 224.369155 224.369155 0 0 0-285.16943-166.259158 223.293044 223.293044 0 0 1 340.051093 137.742215 221.678877 221.678877 0 0 1 74.789719 28.516943 223.831099 223.831099 0 0 1 107.611105 191.547768q0 11.299166-1.076111 22.060276h2.690278a101.154439 101.154439 0 0 1 21.522221 199.618601z" fill="#9CEDFF" p-id="10630"></path><path d="M847.656861 983.645835a101.692495 101.692495 0 0 0-75.865829-168.949435h-2.690278q1.076111-11.299166 1.076111-22.598332a225.983321 225.983321 0 0 0-108.149161-193.161935 222.754988 222.754988 0 0 0-75.327774-29.054998 224.369155 224.369155 0 0 0-285.169429-166.259158 223.293044 223.293044 0 0 1 340.051093 137.742215 221.678877 221.678877 0 0 1 74.789718 28.516943 223.831099 223.831099 0 0 1 107.611106 191.547768q0 11.299166-1.076111 22.060276h2.690277a101.154439 101.154439 0 0 1 21.522221 199.618601z" fill="#32B7FF" p-id="10631"></path><path d="M776.633531 1023.461944h-54.881664a21.522221 21.522221 0 0 1 0-43.044442h54.881664a79.36319 79.36319 0 0 0 0-158.72638h-2.152222a22.060277 22.060277 0 0 1-16.141666-6.994722 21.522221 21.522221 0 0 1-5.91861-16.679721c0.538056-6.456666 1.076111-13.451388 1.076111-19.908055a201.232767 201.232767 0 0 0-17.217777-82.322496 21.522221 21.522221 0 1 1 39.278053-17.217776 244.277209 244.277209 0 0 1 20.984166 99.540272v2.152222a122.138605 122.138605 0 0 1-19.908055 243.201098z m-115.143883 0h-21.522221a21.522221 21.522221 0 0 1 0-43.044442h21.522221a21.522221 21.522221 0 0 1 0 43.044442z m-92.007495 0H245.03467A245.35332 245.35332 0 0 1 134.733287 559.120024a245.891376 245.891376 0 0 1 44.120554-99.002217 21.522221 21.522221 0 1 1 34.435553 25.826666 202.846934 202.846934 0 0 0-37.663887 90.931384 21.522221 21.522221 0 0 1-12.375277 16.679721 202.308878 202.308878 0 0 0 82.322496 387.39998h324.447483a21.522221 21.522221 0 0 1 0 43.044442z m137.20416-385.247757a21.522221 21.522221 0 0 1-15.065555-5.918611 202.846934 202.846934 0 0 0-35.511665-27.440832 21.522221 21.522221 0 1 1 22.598332-36.587776 245.891376 245.891376 0 0 1 43.582498 33.359443 21.522221 21.522221 0 0 1-15.065555 37.125832z m-114.605828-59.186108a21.522221 21.522221 0 0 1-20.984165-16.679721A203.384989 203.384989 0 0 0 374.706052 404.698088a199.080545 199.080545 0 0 0-88.779162 20.44611 21.538363 21.538363 0 0 1-18.831943-38.739998 242.124987 242.124987 0 0 1 107.611105-24.750554 246.429431 246.429431 0 0 1 238.896655 191.547768 21.522221 21.522221 0 0 1-16.141666 25.826665z" fill="" p-id="10632"></path><path d="M277.318002 676.416129m-24.212499 0a24.212499 24.212499 0 1 0 48.424998 0 24.212499 24.212499 0 1 0-48.424998 0Z" fill="" p-id="10633"></path><path d="M503.301323 676.416129m-24.212498 0a24.212499 24.212499 0 1 0 48.424997 0 24.212499 24.212499 0 1 0-48.424997 0Z" fill="" p-id="10634"></path><path d="M331.123555 770.575847h117.83416a61.876386 61.876386 0 1 1-117.83416 0z" fill="#FF8472" p-id="10635"></path><path d="M390.309663 862.045286a72.637496 72.637496 0 0 1-69.409163-94.697772 10.761111 10.761111 0 0 1 10.223055-7.532778h117.83416a10.761111 10.761111 0 0 1 10.223055 7.532778A72.637496 72.637496 0 0 1 390.309663 862.045286z m-50.57722-80.708329a51.115275 51.115275 0 1 0 101.154439 0z" fill="" p-id="10636"></path><path d="M167.016619 797.478623m-32.283332 0a32.283332 32.283332 0 1 0 64.566664 0 32.283332 32.283332 0 1 0-64.566664 0Z" fill="#FAD700" p-id="10637"></path><path d="M581.319375 797.478623m-32.283332 0a32.283332 32.283332 0 1 0 64.566664 0 32.283332 32.283332 0 1 0-64.566664 0Z" fill="#FAD700" p-id="10638"></path></svg>